<svg width="24" height="24" viewBox="0 0 24 24" fill="none" xmlns="http://www.w3.org/2000/svg">
  <path d="M12 2L2 7V12C2 17.52 5.85 22.44 11.5 23.93C11.66 23.97 11.83 24 12 24C12.17 24 12.34 23.97 12.5 23.93C18.15 22.44 22 17.52 22 12V7L12 2Z" stroke="currentColor" stroke-width="1.5" stroke-linecap="round" stroke-linejoin="round"/>
  <circle cx="12" cy="10" r="2.5" stroke="currentColor" stroke-width="1.5"/>
  <path d="M8 16C8 16 9.5 14 12 14C14.5 14 16 16 16 16" stroke="currentColor" stroke-width="1.5" stroke-linecap="round"/>
  <circle cx="8.5" cy="10.5" r="0.5" fill="currentColor"/>
  <circle cx="15.5" cy="10.5" r="0.5" fill="currentColor"/>
  <path d="M12 2V7" stroke="currentColor" stroke-width="1.5" stroke-linecap="round"/>
  <path d="M7 4.5L12 7L17 4.5" stroke="currentColor" stroke-width="1.5" stroke-linecap="round"/>
</svg> 